<?xml version="1.0" standalone="no"?>
<!DOCTYPE svg PUBLIC "-//W3C//DTD SVG 20010904//EN"
 "http://www.w3.org/TR/2001/REC-SVG-20010904/DTD/svg10.dtd">
<svg version="1.0" xmlns="http://www.w3.org/2000/svg"
 width="500.000000pt" height="500.000000pt" viewBox="0 0 500.000000 500.000000"
 preserveAspectRatio="xMidYMid meet">
<metadata>
Created by potrace 1.11, written by Peter Selinger 2001-2013
</metadata>
<g transform="translate(0.000000,500.000000) scale(0.100000,-0.100000)"
fill="#000000" stroke="none">
<path d="M3415 3464 c-165 -34 -231 -62 -330 -139 -71 -55 -165 -182 -195
-263 -44 -117 -50 -182 -50 -563 0 -390 6 -453 57 -573 63 -151 207 -289 364
-348 82 -31 88 -32 249 -33 220 0 287 20 431 128 75 56 160 166 198 256 44
104 52 171 58 476 7 359 -5 518 -45 633 -80 227 -269 382 -512 421 -63 11
-185 13 -225 5z m249 -333 c94 -41 156 -112 190 -217 15 -45 16 -100 14 -431
l-3 -380 -35 -68 c-63 -123 -168 -185 -314 -185 -164 0 -281 81 -332 230 -17
50 -19 88 -19 430 0 370 0 376 23 433 28 68 110 157 168 182 93 39 223 42 308
6z"/>
<path d="M800 2505 l0 -945 145 0 145 0 2 640 3 640 159 -423 c87 -232 177
-468 198 -524 l39 -103 124 0 123 0 30 78 c16 42 105 284 198 536 l169 459 3
-652 2 -651 145 0 145 0 0 945 0 945 -178 0 -179 0 -228 -631 c-126 -346 -232
-624 -235 -617 -4 7 -107 291 -230 631 l-223 617 -179 0 -178 0 0 -945z"/>
</g>
</svg>
